<svg id="Layer_1" data-name="Layer 1" xmlns="http://www.w3.org/2000/svg" xmlns:xlink="http://www.w3.org/1999/xlink" viewBox="0 0 14.05 15.19"><defs><style>.cls-1{fill:url(#New_Gradient_Swatch);}.cls-2{fill:url(#New_Gradient_Swatch-2);}</style><linearGradient id="New_Gradient_Swatch" x1="7201.81" y1="7194.9" x2="7201.81" y2="7203.4" gradientUnits="userSpaceOnUse"><stop offset="0" stop-color="#00ffc2"/><stop offset="0.43" stop-color="#00d9a5"/><stop offset="1" stop-color="#00a07a"/></linearGradient><linearGradient id="New_Gradient_Swatch-2" x1="7197.88" y1="7192.17" x2="7197.88" y2="7207.37" xlink:href="#New_Gradient_Swatch"/></defs><title>terminal</title><path class="cls-1" d="M7205.11,7195.1a.72.72,0,0,0-1,0l-.68.68h0l-5,5a1.23,1.23,0,0,0-.3.49l-.54,1.68a.33.33,0,0,0,.31.43l.1,0,1.68-.54a1.24,1.24,0,0,0,.49-.3l5.7-5.7a.71.71,0,0,0,0-1Zm-5.42,7a.58.58,0,0,1-.23.14l-1.07.35.35-1.07a.58.58,0,0,1,.14-.23l4.81-4.76.78.78Zm5.25-5.25-.78-.78.48-.48.74.81Z" transform="translate(-7192.02 -7192.17)"/><path class="cls-2" d="M7203.41,7200.65a.33.33,0,0,0-.33.33v5.55a.17.17,0,0,1-.17.17h-10.06a.17.17,0,0,1-.17-.17V7196.1h2.94a.33.33,0,0,0,.33-.33v-2.94h7a.17.17,0,0,1,.17.17v1.48a.33.33,0,0,0,.66,0V7193a.84.84,0,0,0-.84-.84h-7.38a.33.33,0,0,0-.15.08l-3.27,3.27a.32.32,0,0,0-.08.15v0a.33.33,0,0,0,0,0v10.76a.84.84,0,0,0,.84.84h10.06a.84.84,0,0,0,.84-.84V7201A.33.33,0,0,0,7203.41,7200.65Zm-8.13-7.35v2.14h-2.14Z" transform="translate(-7192.02 -7192.17)"/></svg>