<svg id="Layer_1" data-name="Layer 1" xmlns="http://www.w3.org/2000/svg" xmlns:xlink="http://www.w3.org/1999/xlink" viewBox="0 0 15.15 15.15"><defs><style>.cls-1{fill:url(#New_Gradient_Swatch);}</style><linearGradient id="New_Gradient_Swatch" x1="7198.64" y1="7192.39" x2="7198.64" y2="7207.54" gradientUnits="userSpaceOnUse"><stop offset="0" stop-color="#00ffc2"/><stop offset="0.43" stop-color="#00d9a5"/><stop offset="1" stop-color="#00a07a"/></linearGradient></defs><title>files</title><path class="cls-1" d="M7200.89,7192.39a5.32,5.32,0,0,0-4.62,8l-4.79,4.79a1.4,1.4,0,0,0,2,2l4.79-4.79a5.33,5.33,0,1,0,2.64-9.95Zm-7.92,14.26a.71.71,0,1,1-1-1l4.7-4.7a5.36,5.36,0,0,0,1,1Zm7.92-4.29a4.64,4.64,0,1,1,4.64-4.64A4.65,4.65,0,0,1,7200.89,7202.36Z" transform="translate(-7191.07 -7192.39)"/></svg>