<svg id="Layer_1" data-name="Layer 1" xmlns="http://www.w3.org/2000/svg" xmlns:xlink="http://www.w3.org/1999/xlink" viewBox="0 0 52.29 31.57"><defs><style>.cls-1{fill:url(#linear-gradient);}.cls-2{fill:url(#linear-gradient-2);}.cls-3{fill:url(#linear-gradient-3);}</style><linearGradient id="linear-gradient" x1="7196.15" y1="7194.21" x2="7196.15" y2="7215.31" gradientUnits="userSpaceOnUse"><stop offset="0" stop-color="#00ffc2"/><stop offset="0.43" stop-color="#00d9a5"/><stop offset="1" stop-color="#00a07a"/></linearGradient><linearGradient id="linear-gradient-2" x1="7181.55" y1="7193.07" x2="7181.55" y2="7215.72" xlink:href="#linear-gradient"/><linearGradient id="linear-gradient-3" x1="7209.43" y1="7184.14" x2="7209.43" y2="7215.7" xlink:href="#linear-gradient"/></defs><title>top logo</title><path id="Fill-1" class="cls-1" d="M7196.15,7194.21a2.44,2.44,0,0,0-2.47,2.41v16.29a2.47,2.47,0,0,0,4.95,0v-16.29a2.44,2.44,0,0,0-2.47-2.41" transform="translate(-7172.91 -7184.14)"/><path id="Fill-5" class="cls-2" d="M7173.83,7213.08a2.26,2.26,0,0,1-.91-1.82,2.23,2.23,0,0,1,2.27-2.23,2.34,2.34,0,0,1,1.39.44,9.29,9.29,0,0,0,5.63,2c2,0,3.18-.79,3.18-2.07v-.06c0-1.23-.76-1.86-4.44-2.8-4.44-1.13-7.3-2.36-7.3-6.73v-.06c0-4,3.21-6.64,7.71-6.64a12.8,12.8,0,0,1,7,1.95,2.21,2.21,0,0,1,1.07,1.92,2.23,2.23,0,0,1-2.27,2.23,2.33,2.33,0,0,1-1.23-.35,9.18,9.18,0,0,0-4.63-1.48c-1.86,0-2.83.85-2.83,1.92v.06c0,1.45.94,1.92,4.75,2.89,4.47,1.16,7,2.77,7,6.6v.06c0,4.37-3.34,6.83-8.09,6.83a14.23,14.23,0,0,1-8.28-2.64" transform="translate(-7172.91 -7184.14)"/><g id="Fill-4"><path class="cls-3" d="M7219.84,7194.7a11.37,11.37,0,0,0-10.87-.65h0a5.21,5.21,0,0,1-5.62-.87l-.21-.2-4.15-4.15h0a2.37,2.37,0,0,1-.59-1.85h0a2.47,2.47,0,0,0,0-.44,2.4,2.4,0,1,0-1.95,2.34h0a2.39,2.39,0,0,1,1.86.58h0l4.18,4.18.16.18a5.22,5.22,0,0,1,.87,5.63h0a11.35,11.35,0,0,0,2.23,12.86,11.63,11.63,0,0,0,7.11,3.34c.67.06,10.22,0,10.22,0a2.09,2.09,0,0,0,1.42-.62,2.26,2.26,0,0,0,.67-1.47s0-8.79,0-9.25a11.12,11.12,0,0,0-.11-1.22,10.88,10.88,0,0,0-3.27-6.85,11.33,11.33,0,0,0-2-1.58Zm.15,7.44a11,11,0,0,1,.28,2v4.6a2,2,0,0,1-2.05,2.05h-4.47a9.09,9.09,0,0,1-2.1-.28,6.68,6.68,0,0,1-2.94-1.73,6.75,6.75,0,0,1,9.55-9.54,6,6,0,0,1,1.74,2.94Z" transform="translate(-7172.91 -7184.14)"/></g></svg>