<?xml version="1.0" encoding="UTF-8"?>
<svg width="97px" height="58px" viewBox="0 0 97 58" version="1.1" xmlns="http://www.w3.org/2000/svg" xmlns:xlink="http://www.w3.org/1999/xlink">
    <!-- Generator: Sketch 50.2 (55047) - http://www.bohemiancoding.com/sketch -->
    <title>Sia Wordmark</title>
    <desc>Created with Sketch.</desc>
    <defs></defs>
    <g id="Token-Site-Landing-Page" stroke="none" stroke-width="1" fill="none" fill-rule="evenodd">
        <g id="Artboard" transform="translate(-408.000000, -654.000000)" fill="#20EE82">
            <g id="Sia-Wordmark" transform="translate(408.655244, 654.620917)">
                <path d="M87.197335,48.0789697 L87.197335,35.1647406 C87.197335,27.9159975 81.3992916,21.8899913 74.1508458,21.8543257 C66.8688149,21.8183628 60.9367282,27.7501523 60.972691,35.0324805 C61.0086539,42.2809263 67.0343628,48.0789697 74.2831059,48.0789697 L87.197335,48.0789697 Z M74.0848644,13.1126786 C86.1544124,13.1126786 95.9386848,22.8966539 95.9386848,34.9664991 L95.9386848,56.8203195 L74.0848644,56.8203195 C62.0150192,56.8203195 52.231044,47.0360471 52.231044,34.9664991 C52.231044,22.8966539 62.0150192,13.1126786 74.0848644,13.1126786 Z" id="Fill-1"></path>
                <polygon id="Fill-3" points="39.1186625 56.8204087 47.8600124 56.8204087 47.8600124 13.1124706 39.1186625 13.1124706"></polygon>
                <path d="M47.8600718,4.37100186 C47.8600718,6.7849709 45.9032173,8.74182539 43.4892483,8.74182539 C41.0755765,8.74182539 39.118722,6.7849709 39.118722,4.37100186 C39.118722,1.95703282 41.0755765,0.000178328173 43.4892483,0.000178328173 C45.9032173,0.000178328173 47.8600718,1.95703282 47.8600718,4.37100186" id="Fill-5"></path>
                <path d="M5.90388111,43.2756409 C7.48713808,45.0589226 9.43121238,46.53013 11.734618,47.6898576 C14.038618,48.8501796 16.2632619,49.4371765 18.4100359,49.4529288 C20.7214663,49.4704644 22.6242279,48.9277523 24.1174291,47.8244954 C25.6112248,46.7215356 26.3625808,45.542192 26.3709028,44.2846811 C26.3804136,42.9712941 25.9334043,41.9111331 25.0310638,41.1036037 C24.128426,40.2978576 22.8518935,39.7459319 21.2032495,39.4472322 L16.3387542,38.4685077 C10.9517573,37.4000248 7.21994303,35.9306006 5.14152817,34.0575604 C3.06192446,32.1863034 2.03445697,29.6787121 2.05645077,26.5362724 C2.08201115,22.8234799 3.51993065,19.6483467 6.37347864,17.0132508 C9.22554056,14.3778576 13.0462217,13.077548 17.8346303,13.1132136 C20.6412186,13.1340186 23.3069276,13.6119381 25.8326489,14.544 C28.3571814,15.4769536 30.9616644,16.9532136 33.6452062,18.9721858 L31.1310762,22.154452 L28.7313734,25.191678 C26.8161288,23.4633808 24.9543827,22.2498576 23.1425684,21.5511084 C21.3310514,20.8520619 19.6274229,20.4962972 18.031683,20.4844087 C16.0501598,20.4698452 14.3260235,20.928743 12.8619492,21.8605077 C11.3966861,22.7922724 10.6592991,24.0586997 10.6483022,25.6574118 C10.6325498,27.9429845 12.3560916,29.4127059 15.8186303,30.0662786 L24.4752743,31.8445077 C31.5097263,33.268161 35.0073362,36.9785759 34.9660235,42.9775356 C34.9550266,44.5774365 34.6138254,46.1883344 33.9418254,47.811418 C33.2701226,49.4347988 32.241169,50.9413746 30.8564508,52.3305511 C29.4702464,53.7212136 27.6878563,54.8220929 25.5083889,55.6328916 C23.3283269,56.444582 20.8079554,56.841065 17.9466799,56.8193684 C11.4519678,56.7712198 5.46905759,54.2995913 2.97213622e-05,49.4021053 L5.90388111,43.2756409 Z" id="Fill-6"></path>
            </g>
        </g>
    </g>
</svg>