<?xml version="1.0" encoding="UTF-8" standalone="no"?>
<svg width="96px" height="58px" viewBox="0 0 96 58" version="1.1" xmlns="http://www.w3.org/2000/svg" xmlns:xlink="http://www.w3.org/1999/xlink" xmlns:sketch="http://www.bohemiancoding.com/sketch/ns">
    <!-- Generator: Sketch 3.3.3 (12072) - http://www.bohemiancoding.com/sketch -->
    <title>logo</title>
    <desc>Created with Sketch.</desc>
    <defs></defs>
    <g id="Get-started" stroke="none" stroke-width="1" fill="none" fill-rule="evenodd" sketch:type="MSPage">
        <g id="Desktop-(&gt;1200px)" sketch:type="MSArtboardGroup" transform="translate(-161.000000, -19.000000)" fill="#00CBA0">
            <g id="Nav" sketch:type="MSLayerGroup" transform="translate(161.000000, 19.000000)">
                <g id="logo" sketch:type="MSShapeGroup">
                    <path d="M43,20 C40.791,20 39,21.7438684 39,23.8947368 L39,53.1052632 C39,55.2556447 40.791,57 43,57 C45.209,57 47,55.2556447 47,53.1052632 L47,23.8947368 C47,21.7438684 45.209,20 43,20" id="Fill-1"></path>
                    <path id="Fill-2" d="M49,9.00594872 C49.0560623,9.05552137 49.1131082,9.10311111 49.1662199,9.15664957 L49.010819,9 C49.0068848,9.00198291 49.0034424,9.00396581 49,9.00594872"></path>
                    <path id="Fill-3" d="M50,8.01090598 L50.1554009,8.16755556 C50.1022892,8.11401709 50.0550788,8.05552137 50.0059013,8 C50.0039342,8.00347009 50.0019671,8.00694017 50,8.01090598"></path>
                    <path d="M87.0980177,22.1910347 C81.649188,18.7664098 74.8210831,18.4150901 69.0803695,21.1187674 C69.0774012,21.114314 69.0744329,21.1108503 69.0714646,21.106397 C66.0230092,22.481492 62.3556608,21.9945925 59.7504732,19.6585639 C59.6322354,19.553168 59.5164713,19.4467825 59.4021913,19.3324799 L47.8391356,7.76713429 C47.8381462,7.76614466 47.8277571,7.76119649 47.829736,7.75773278 C47.0555015,6.8908143 46.7339345,5.77747722 46.8551405,4.6928395 C46.8526669,4.69086023 46.8482144,4.69135505 46.8462356,4.69036542 C46.8902655,4.45235869 46.9154962,4.20890898 46.9159909,3.95754221 C46.9154962,1.77193782 45.1434145,0 42.9577481,0 C40.7720817,0 39,1.77243263 39,3.95853184 C39,6.14364142 40.771587,7.91706368 42.9572534,7.91706368 C43.2080756,7.91706368 43.4524666,7.89083841 43.6904262,7.84630493 C43.6914156,7.84927382 43.6928998,7.85125309 43.6938892,7.85372717 C44.7788069,7.73249714 45.9146806,8.03285074 46.780438,8.80723853 C46.7843957,8.80525926 46.7888482,8.81565041 46.7898377,8.81664004 L58.4073124,20.4364154 C58.5022984,20.5314202 58.5799692,20.6402798 58.6690185,20.7397379 C61.0065635,23.3474208 61.4839668,27.0258865 60.1056811,30.0754405 C60.1096388,30.0784094 60.1106282,30.0823679 60.114586,30.0853368 C57.4104546,35.8266924 57.7602206,42.6586236 61.1846621,48.1090271 C61.9183297,49.2797629 62.7890343,50.3871622 63.8056808,51.4049997 C67.0465817,54.6460476 71.3481592,56.5654407 75.5908651,56.9419961 C76.7020029,57.0389801 92.536953,56.9850451 92.536953,56.9850451 C93.3952896,56.9850451 94.2773727,56.5595029 94.884887,55.9528579 C95.4919066,55.3462129 95.9999825,54.380826 95.9999825,53.5213298 C95.9999825,53.5213298 95.9989931,38.9479948 95.9999825,38.1820189 C96.0019614,37.4165378 95.8352413,36.3170556 95.8213891,36.1597039 C95.4454031,31.915663 93.6372069,28.05461 90.396306,24.8130672 C89.3791647,23.7967142 88.2675322,22.9253423 87.0980177,22.1910347 L87.0980177,22.1910347 Z M88.1126853,35.0335016 C88.557932,37.2210853 88.5792049,38.1830085 88.5792049,38.3289794 L88.5792049,46.0990826 C88.5792049,46.9590736 88.1967875,47.9660251 87.5897679,48.573165 C86.9827482,49.1803048 85.9750066,49.5627979 85.1161753,49.5627979 L77.5697392,49.5627979 C77.4242919,49.5627979 75.6527049,49.5420156 74.0240916,49.0927223 C72.2010539,48.5899887 70.4833912,47.6028298 69.05316,46.1723154 C64.6160297,41.7357908 64.6165244,34.504048 69.0526653,30.0665338 C73.4897956,25.6295144 80.7394007,25.6265455 85.1760363,30.0635649 C86.6062675,31.4935845 87.7347204,33.1809087 88.1126853,35.0335016 L88.1126853,35.0335016 Z" id="Fill-4"></path>
                    <path d="M1.5321943,53.5671501 C0.633247934,52.9344476 0,51.7722809 0,50.5063845 C0,48.3949183 1.69013726,46.7588393 3.80293184,46.7588393 C4.8588371,46.7588393 5.59836441,47.1285302 6.12730111,47.4977295 C8.92697535,49.5561018 11.991364,50.8224899 15.5827211,50.8224899 C18.9093639,50.8224899 20.9178473,49.5034995 20.9178473,47.3399226 L20.9178473,47.2337348 C20.9178473,45.1758542 19.6493833,44.1203669 13.4694345,42.5363986 C6.0220058,40.6363248 1.21483228,38.5784442 1.21483228,31.2421439 L1.21483228,31.1359561 C1.21483228,24.4333415 6.60260608,20 14.1558221,20 C18.6471097,20 22.5558289,21.1616751 25.8829637,23.272158 C26.780926,23.8001475 27.6788883,24.9082371 27.6788883,26.4917138 C27.6788883,28.6031799 25.9892431,30.239259 23.8759565,30.239259 C23.0842736,30.239259 22.4495495,30.0278665 21.8167936,29.6581756 C19.1219227,28.0746989 16.5869628,27.1780017 14.0505268,27.1780017 C10.9339826,27.1780017 9.29649298,28.6031799 9.29649298,30.3975575 L9.29649298,30.5027621 C9.29649298,32.9313169 10.8813349,33.7223178 17.2728584,35.3588884 C24.7734268,37.3115645 29,40.0031308 29,46.4422423 L29,46.5474469 C29,53.8842387 23.4006515,58 15.4252702,58 C10.564465,58 5.65199613,56.5232027 1.5321943,53.5671501" id="Fill-5"></path>
                </g>
            </g>
        </g>
    </g>
</svg>