<svg id="Layer_1" data-name="Layer 1" xmlns="http://www.w3.org/2000/svg" xmlns:xlink="http://www.w3.org/1999/xlink" viewBox="0 0 15.78 11.82"><defs><style>.cls-1{fill:url(#New_Gradient_Swatch);}</style><linearGradient id="New_Gradient_Swatch" x1="7199.33" y1="7193.57" x2="7199.33" y2="7205.39" gradientUnits="userSpaceOnUse"><stop offset="0" stop-color="#00ffc2"/><stop offset="0.43" stop-color="#00d9a5"/><stop offset="1" stop-color="#00a07a"/></linearGradient></defs><title>host</title><path class="cls-1" d="M7205.33,7198.24a3.85,3.85,0,0,0-7.19-2.55,2.4,2.4,0,0,0-.59-.07,2.48,2.48,0,0,0-2.45,2.09,3.85,3.85,0,0,0,.19,7.69h8.09a3.84,3.84,0,0,0,2-7.15Zm-2,6.49h-8.09a3.19,3.19,0,0,1,0-6.37h.1a.34.34,0,0,0,.34-.32,1.82,1.82,0,0,1,2.48-1.65.33.33,0,0,0,.42-.18,3.18,3.18,0,0,1,6,2.1.33.33,0,0,0,.17.39,3.18,3.18,0,0,1-1.43,6Z" transform="translate(-7191.44 -7193.57)"/></svg>