<svg id="Layer_1" data-name="Layer 1" xmlns="http://www.w3.org/2000/svg" xmlns:xlink="http://www.w3.org/1999/xlink" viewBox="0 0 9.95 14.67"><defs><style>.cls-1{fill:url(#New_Gradient_Swatch);}.cls-2{fill:url(#New_Gradient_Swatch-2);}</style><linearGradient id="New_Gradient_Swatch" x1="7198.88" y1="7192.75" x2="7198.88" y2="7207.42" gradientUnits="userSpaceOnUse"><stop offset="0" stop-color="#00ffc2"/><stop offset="0.43" stop-color="#00d9a5"/><stop offset="1" stop-color="#00a07a"/></linearGradient><linearGradient id="New_Gradient_Swatch-2" x1="7198.88" y1="7195.79" x2="7198.88" y2="7200.28" xlink:href="#New_Gradient_Swatch"/></defs><title>about</title><path class="cls-1" d="M7198.88,7207.42l-4.3-7.19a5,5,0,1,1,8.6,0Zm0-13.82a4.12,4.12,0,0,0-3.56,6.19l3.56,6,3.56-6a4.12,4.12,0,0,0-3.56-6.18Z" transform="translate(-7193.9 -7192.75)"/><path class="cls-2" d="M7198.88,7200.28a2.24,2.24,0,1,1,2.24-2.24A2.25,2.25,0,0,1,7198.88,7200.28Zm0-3.84a1.6,1.6,0,1,0,1.6,1.6A1.6,1.6,0,0,0,7198.88,7196.43Z" transform="translate(-7193.9 -7192.75)"/></svg>